<?xml version="1.0" standalone="no"?>
<!DOCTYPE svg PUBLIC "-//W3C//DTD SVG 20010904//EN"
 "http://www.w3.org/TR/2001/REC-SVG-20010904/DTD/svg10.dtd">
<svg version="1.0" xmlns="http://www.w3.org/2000/svg"
 width="972.000000pt" height="406.000000pt" viewBox="0 0 972.000000 406.000000"
 preserveAspectRatio="xMidYMid meet">

<g transform="translate(0.000000,406.000000) scale(0.100000,-0.100000)"
fill="#000000" stroke="none">
<path d="M3971 4008 c-10 -24 -173 -410 -362 -857 l-344 -815 -3 847 -2 847
-390 0 -390 0 -2 -305 -3 -304 -55 70 c-173 223 -440 389 -760 473 -223 59
-230 59 -957 63 l-673 4 0 -1400 0 -1401 573 0 c314 0 624 5 687 10 510 44
914 250 1158 589 l32 44 0 -321 0 -322 568 0 567 0 99 250 100 250 541 0 541
0 100 -247 100 -248 607 -3 606 -2 3 647 3 648 26 55 c36 77 80 124 147 157
48 23 70 28 137 28 68 0 89 -4 138 -28 71 -35 120 -96 147 -185 19 -61 20 -93
20 -693 l0 -629 380 0 380 0 0 65 c0 36 2 65 5 65 3 0 25 -15 49 -34 120 -92
284 -139 481 -139 241 0 426 69 581 215 l54 51 0 -112 0 -111 375 0 376 0 -3
737 -4 738 -26 98 c-65 237 -186 391 -387 496 -176 91 -349 124 -641 125 -219
0 -328 -11 -508 -50 -106 -24 -338 -97 -354 -112 -6 -6 137 -518 148 -531 2
-2 52 12 111 32 162 54 243 68 414 74 125 4 172 2 231 -11 172 -38 268 -151
268 -314 0 -46 -2 -53 -17 -48 -403 127 -860 90 -1103 -89 l-48 -35 -4 247
c-6 283 -16 340 -89 492 -56 115 -169 230 -279 284 -124 60 -184 72 -360 72
-141 -1 -162 -3 -235 -28 -121 -40 -198 -91 -312 -203 l-103 -100 0 148 0 148
-380 0 -380 0 0 -627 c0 -344 -3 -624 -6 -621 -3 3 -185 431 -404 950 l-399
943 -376 3 -376 2 -18 -42z m-2608 -770 c43 -22 716 -589 722 -607 7 -21 -7
-62 -26 -78 -8 -6 -53 -13 -101 -14 -128 -6 -122 7 -128 -260 -5 -217 -5 -221
-29 -240 -22 -18 -45 -19 -461 -19 -241 0 -446 3 -455 6 -38 15 -45 55 -45
259 0 109 -4 204 -10 215 -14 26 -63 40 -136 40 -51 0 -68 4 -84 20 -23 23
-26 68 -7 92 17 21 667 571 692 586 26 15 41 15 68 0z m3155 -513 l149 -380
-305 -3 c-168 -1 -307 0 -310 2 -2 3 64 179 149 391 84 212 156 382 160 378 4
-4 75 -179 157 -388z m3875 -426 c66 -30 46 -129 -26 -129 -66 0 -93 78 -41
119 31 24 35 25 67 10z m-375 -79 c30 -62 45 -80 83 -103 46 -28 48 -28 91
-14 24 9 73 20 108 27 134 23 195 47 253 100 54 49 80 60 92 39 14 -22 -8 -63
-70 -125 -60 -60 -65 -68 -65 -108 0 -33 7 -52 26 -76 28 -33 73 -60 99 -60
41 0 87 34 117 87 35 63 58 70 58 18 0 -38 -18 -80 -55 -130 -21 -27 -23 -44
-27 -170 -4 -139 -16 -191 -41 -182 -7 2 -15 32 -19 67 -10 86 -18 88 -18 3 0
-71 -13 -100 -38 -84 -15 9 -31 130 -32 237 0 75 -2 82 -29 108 l-28 27 -6
-148 c-3 -81 -9 -161 -14 -177 -11 -34 -33 -52 -57 -43 -14 5 -16 26 -16 147
0 87 -4 140 -10 140 -5 0 -10 -24 -10 -52 0 -131 -35 -240 -77 -246 -33 -5
-38 46 -21 247 17 208 14 276 -11 265 -9 -3 -38 -9 -65 -12 l-49 -5 6 -63 c7
-70 38 -153 68 -180 19 -17 19 -18 -10 -48 -28 -29 -30 -37 -33 -120 -2 -61
-7 -91 -16 -94 -16 -5 -38 48 -47 116 -5 41 -11 52 -25 52 -16 0 -20 -9 -22
-65 -2 -36 -7 -66 -13 -68 -15 -3 -35 46 -42 101 -4 40 -11 51 -39 70 -22 14
-34 30 -34 44 0 16 -3 19 -11 11 -8 -8 -8 -30 2 -82 9 -55 10 -74 1 -83 -7 -7
-12 -20 -12 -29 0 -10 -5 -30 -10 -44 -9 -23 -13 -25 -25 -15 -8 7 -15 29 -16
49 l-1 36 -12 -37 c-17 -56 -33 -67 -46 -34 -5 15 -10 38 -10 52 0 13 -3 24
-7 24 -5 0 -14 4 -21 8 -12 8 -7 55 14 123 3 11 -9 25 -36 43 -22 14 -40 33
-40 41 0 19 11 19 57 0 48 -20 96 -19 142 4 57 30 63 42 69 146 5 92 4 98 -27
158 -31 62 -50 137 -43 170 7 35 33 11 70 -63z m176 14 c9 -8 16 -28 16 -44 0
-36 -24 -60 -60 -60 -36 0 -60 24 -60 60 0 36 24 60 60 60 16 0 36 -7 44 -16z
m478 -221 c38 -34 12 -93 -41 -93 -36 0 -51 17 -51 57 0 49 54 71 92 36z
m-745 -129 c15 -24 15 -29 2 -53 -27 -49 -99 -35 -99 19 0 59 65 82 97 34z"/>
<path d="M7910 470 l0 -270 35 0 35 0 0 270 0 270 -35 0 -35 0 0 -270z"/>
<path d="M5295 696 c-21 -21 -25 -35 -25 -81 0 -54 0 -55 -30 -55 -16 0 -30
-4 -30 -10 0 -5 14 -10 30 -10 l30 0 0 -170 0 -170 35 0 35 0 0 170 0 170 55
0 c30 0 55 5 55 10 0 6 -25 10 -55 10 l-55 0 0 60 c0 69 18 86 77 75 27 -5 34
-3 31 7 -3 8 -26 14 -66 16 -55 3 -65 0 -87 -22z"/>
<path d="M70 441 l0 -241 135 0 c98 0 147 4 182 16 186 63 243 257 112 381
-66 63 -117 77 -281 81 l-148 4 0 -241z m284 197 c23 -7 59 -30 83 -54 79 -80
84 -197 10 -281 -46 -52 -105 -75 -209 -81 l-88 -5 0 217 0 216 81 0 c45 0
100 -6 123 -12z"/>
<path d="M1990 440 l0 -240 35 0 35 0 0 240 0 240 -35 0 -35 0 0 -240z"/>
<path d="M6620 669 c0 -6 4 -18 9 -28 8 -13 -15 -67 -94 -229 -70 -144 -99
-212 -89 -212 8 0 29 29 46 65 l32 65 126 0 125 0 35 -65 c33 -62 37 -65 72
-65 l36 0 -116 240 -117 240 -32 0 c-18 0 -33 -5 -33 -11z m37 -317 c-60 -1
-112 -1 -114 2 -2 2 22 56 54 121 l58 117 56 -119 56 -118 -110 -3z"/>
<path d="M2670 635 c0 -22 4 -25 35 -25 31 0 35 3 35 25 0 22 -4 25 -35 25
-31 0 -35 -3 -35 -25z"/>
<path d="M3110 635 c0 -22 4 -25 35 -25 31 0 35 3 35 25 0 22 -4 25 -35 25
-31 0 -35 -3 -35 -25z"/>
<path d="M3970 635 c0 -22 4 -25 35 -25 31 0 35 3 35 25 0 22 -4 25 -35 25
-31 0 -35 -3 -35 -25z"/>
<path d="M8800 635 c0 -22 4 -25 35 -25 31 0 35 3 35 25 0 22 -4 25 -35 25
-31 0 -35 -3 -35 -25z"/>
<path d="M1120 621 c0 -36 -23 -61 -56 -61 -13 0 -24 -4 -24 -10 0 -5 14 -10
30 -10 l30 0 0 -146 c0 -80 4 -154 10 -164 15 -29 110 -55 110 -30 0 6 -6 10
-14 10 -8 0 -22 7 -30 16 -13 13 -16 42 -16 165 l0 149 40 0 c22 0 40 5 40 10
0 6 -18 10 -40 10 l-40 0 0 45 c0 38 -3 45 -20 45 -15 0 -20 -7 -20 -29z"/>
<path d="M2900 625 c0 -32 -33 -65 -65 -65 -14 0 -25 -4 -25 -10 0 -5 14 -10
30 -10 l30 0 0 -144 c0 -136 1 -147 23 -171 15 -18 36 -28 65 -32 49 -7 56 7
12 24 l-30 11 0 156 0 156 40 0 c22 0 40 5 40 10 0 6 -18 10 -40 10 l-40 0 0
45 c0 38 -3 45 -20 45 -15 0 -20 -7 -20 -25z"/>
<path d="M3760 621 c0 -36 -23 -61 -56 -61 -13 0 -24 -4 -24 -10 0 -5 14 -10
30 -10 l30 0 0 -146 c0 -80 4 -154 10 -164 15 -29 110 -55 110 -30 0 6 -6 10
-14 10 -8 0 -22 7 -30 16 -13 13 -16 42 -16 165 l0 149 40 0 c22 0 40 5 40 10
0 6 -18 10 -40 10 l-40 0 0 45 c0 38 -3 45 -20 45 -15 0 -20 -7 -20 -29z"/>
<path d="M8590 621 c0 -36 -23 -61 -56 -61 -13 0 -24 -4 -24 -10 0 -5 14 -10
30 -10 l30 0 0 -146 c0 -80 4 -154 10 -164 15 -29 110 -55 110 -30 0 6 -6 10
-14 10 -8 0 -22 7 -30 16 -13 13 -16 42 -16 165 l0 149 40 0 c22 0 40 5 40 10
0 6 -18 10 -40 10 l-40 0 0 45 c0 38 -3 45 -20 45 -15 0 -20 -7 -20 -29z"/>
<path d="M750 564 c-48 -18 -90 -38 -90 -44 0 -17 14 -15 57 6 101 52 183 20
183 -71 l0 -45 -72 0 c-77 -1 -137 -17 -168 -45 -26 -23 -35 -78 -20 -114 27
-66 153 -82 224 -27 l36 27 0 -25 c0 -23 4 -26 35 -26 l35 0 0 139 c0 153 -6
182 -45 207 -26 17 -145 29 -175 18z m119 -170 c27 -6 31 -10 31 -41 0 -77
-54 -143 -116 -143 -66 0 -99 63 -67 127 24 51 79 71 152 57z"/>
<path d="M1395 552 c-31 -10 -51 -24 -53 -34 -3 -16 3 -14 49 8 41 21 61 25
101 22 63 -6 80 -24 86 -87 l5 -51 -69 0 c-130 0 -204 -42 -204 -115 0 -49 15
-74 55 -91 63 -26 137 -15 183 28 l22 21 0 -26 c0 -24 4 -27 35 -27 l35 0 0
151 c0 83 -4 158 -10 168 -25 47 -145 64 -235 33z m154 -158 c35 -7 38 -22 20
-86 -15 -57 -47 -88 -96 -95 -35 -5 -45 -2 -67 20 -49 50 -23 136 47 156 41
12 57 12 96 5z"/>
<path d="M2346 560 c-31 -10 -76 -47 -76 -63 0 -6 11 0 24 12 26 24 89 37 131
27 51 -13 65 -56 65 -203 l0 -133 35 0 35 0 0 123 c0 153 -16 197 -82 227 -46
21 -85 24 -132 10z"/>
<path d="M3390 564 c-48 -18 -90 -38 -90 -44 0 -17 14 -15 57 6 101 52 183 20
183 -71 l0 -45 -72 0 c-77 -1 -137 -17 -168 -45 -26 -23 -35 -78 -20 -114 27
-66 153 -82 224 -27 l36 27 0 -25 c0 -23 4 -26 35 -26 l35 0 0 139 c0 153 -6
182 -45 207 -26 17 -145 29 -175 18z m119 -170 c27 -6 31 -10 31 -41 0 -77
-54 -143 -116 -143 -66 0 -99 63 -67 127 24 51 79 71 152 57z"/>
<path d="M4687 556 c-171 -63 -163 -302 11 -352 91 -27 232 0 232 44 0 18 -3
17 -52 -7 -63 -31 -141 -34 -182 -7 -26 16 -65 85 -66 114 0 9 39 12 161 12
l162 0 -5 45 c-14 120 -144 195 -261 151z m144 -37 c31 -22 59 -76 59 -113 l0
-26 -130 0 c-129 0 -130 0 -130 23 0 12 10 43 23 67 38 77 111 97 178 49z"/>
<path d="M5616 555 c-43 -15 -91 -57 -112 -97 -34 -66 -6 -184 53 -226 141
-98 333 -16 333 143 0 60 -19 103 -63 142 -58 51 -135 65 -211 38z m149 -37
c37 -29 55 -76 55 -146 0 -71 -26 -118 -83 -145 -90 -44 -177 31 -177 152 0
63 13 96 51 132 40 37 111 41 154 7z"/>
<path d="M6130 554 c-19 -8 -47 -27 -62 -41 l-28 -27 0 37 c0 34 -2 37 -30 37
l-30 0 0 -180 0 -180 35 0 35 0 0 138 c0 161 6 172 88 182 39 4 48 9 50 28 4
26 -9 27 -58 6z"/>
<path d="M7156 560 c-31 -10 -76 -47 -76 -63 0 -6 11 0 24 12 26 24 89 37 131
27 51 -13 65 -56 65 -203 l0 -133 35 0 35 0 0 123 c0 153 -16 197 -82 227 -46
21 -85 24 -132 10z"/>
<path d="M7580 564 c-48 -18 -90 -38 -90 -44 0 -17 14 -15 57 6 101 52 183 20
183 -71 l0 -45 -72 0 c-77 -1 -137 -17 -168 -45 -26 -23 -35 -78 -20 -114 27
-66 153 -82 224 -27 l36 27 0 -25 c0 -23 4 -26 35 -26 l35 0 0 139 c0 153 -6
182 -45 207 -26 17 -145 29 -175 18z m119 -170 c27 -6 31 -10 31 -41 0 -77
-54 -143 -116 -143 -66 0 -99 63 -67 127 24 51 79 71 152 57z"/>
<path d="M9125 561 c-149 -39 -210 -186 -123 -297 33 -41 113 -74 181 -74 65
0 127 21 127 44 0 19 1 19 -43 1 -47 -19 -130 -19 -168 1 -90 46 -88 226 3
282 42 26 121 29 173 8 33 -14 35 -14 35 3 0 11 -8 22 -17 26 -29 10 -136 15
-168 6z"/>
<path d="M9475 561 c-68 -17 -95 -45 -95 -101 0 -45 34 -73 127 -104 84 -28
113 -49 113 -83 0 -60 -113 -80 -223 -38 -11 5 -17 2 -17 -8 0 -22 99 -41 178
-34 84 6 116 29 120 85 4 57 -23 82 -125 116 -97 32 -132 63 -115 101 18 40
75 59 137 47 27 -6 58 -14 69 -18 14 -5 17 -3 14 7 -10 29 -115 46 -183 30z"/>
<path d="M2190 380 l0 -180 34 0 35 0 3 143 c2 78 1 159 -1 180 -3 35 -5 37
-37 37 l-34 0 0 -180z"/>
<path d="M2670 380 l0 -180 35 0 35 0 0 180 0 180 -35 0 -35 0 0 -180z"/>
<path d="M3110 380 l0 -180 35 0 35 0 0 180 0 180 -35 0 -35 0 0 -180z"/>
<path d="M3970 380 l0 -180 35 0 35 0 0 180 0 180 -35 0 -35 0 0 -180z"/>
<path d="M4120 555 c0 -13 192 -355 200 -355 10 0 203 350 196 357 -11 11 -27
-12 -96 -137 -40 -72 -75 -132 -79 -134 -4 -3 -41 57 -82 132 -70 128 -78 137
-107 140 -18 2 -32 1 -32 -3z"/>
<path d="M7000 380 l0 -180 34 0 35 0 3 143 c2 78 1 159 -1 180 -3 35 -5 37
-37 37 l-34 0 0 -180z"/>
<path d="M8148 360 l96 -201 -32 -65 c-37 -74 -37 -77 -17 -72 17 3 269 527
259 537 -10 10 -26 -19 -99 -177 -39 -83 -73 -152 -76 -152 -3 0 -41 74 -84
165 -78 164 -78 165 -111 165 l-33 0 97 -200z"/>
<path d="M8800 380 l0 -180 35 0 35 0 0 180 0 180 -35 0 -35 0 0 -180z"/>
</g>
</svg>
