<?xml version="1.0" encoding="UTF-8" standalone="no"?>
<!-- Created with Inkscape (http://www.inkscape.org/) -->

<svg
   width="204mm"
   height="78mm"
   viewBox="0 0 204 78"
   version="1.1"
   id="svg1"
   xml:space="preserve"
   inkscape:version="1.4.3 (0d15f75, 2025-12-25)"
   sodipodi:docname="logodaps.svg"
   xmlns:inkscape="http://www.inkscape.org/namespaces/inkscape"
   xmlns:sodipodi="http://sodipodi.sourceforge.net/DTD/sodipodi-0.dtd"
   xmlns="http://www.w3.org/2000/svg"
   xmlns:svg="http://www.w3.org/2000/svg"><sodipodi:namedview
     id="namedview1"
     pagecolor="#ffffff"
     bordercolor="#000000"
     borderopacity="0.25"
     inkscape:showpageshadow="2"
     inkscape:pageopacity="0.0"
     inkscape:pagecheckerboard="0"
     inkscape:deskcolor="#d1d1d1"
     inkscape:document-units="mm"
     inkscape:zoom="0.71891835"
     inkscape:cx="397.12437"
     inkscape:cy="338.70328"
     inkscape:window-width="1920"
     inkscape:window-height="1009"
     inkscape:window-x="-8"
     inkscape:window-y="-8"
     inkscape:window-maximized="1"
     inkscape:current-layer="layer1"
     showguides="false"
     showgrid="false"><inkscape:grid
       id="grid394634"
       units="mm"
       originx="0"
       originy="0"
       spacingx="0.99999998"
       spacingy="1"
       empcolor="#0099e5"
       empopacity="0.30196078"
       color="#0099e5"
       opacity="0.14901961"
       empspacing="5"
       enabled="true"
       visible="false" /></sodipodi:namedview><defs
     id="defs1" /><g
     inkscape:label="Camada 1"
     inkscape:groupmode="layer"
     id="layer1"><g
       id="g394633"
       transform="matrix(1.3951476,0,0,1.3792655,-49.186462,-152.23409)"
       style="stroke-width:0.790667"><path
         style="fill:#0d449d;stroke-width:0.790667"
         d="m 157.92249,165.2588 v -0.0675 h 0.0713 0.0713 v 0.0675 0.0675 h -0.0713 -0.0713 z m -115.802305,-1.11206 0.825527,-0.0488 0.743777,0.0494 0.743777,0.0494 -1.569304,-5.6e-4 -1.569304,-5.5e-4 z m 10.856379,-0.0947 -0.07892,-0.19456 0.06685,-0.24405 0.06685,-0.24406 0.01655,0.36258 0.01655,0.36258 0.463658,0.0544 0.463658,0.0544 -0.468135,0.0216 -0.468136,0.0216 z m 4.540501,-0.0215 -0.183955,-0.18882 h 0.139869 0.139869 l 0.09404,0.14393 0.09404,0.14394 -0.04995,0.0449 -0.04995,0.0449 z m 5.672755,0.14028 0.424228,-0.0758 0.04536,-1.94875 0.04535,-1.94876 -0.0059,1.99078 -0.0059,1.99078 -0.463658,0.0337 -0.463658,0.0337 z m 5.676322,-0.0197 0.322657,-0.0587 0.247999,0.0614 0.247998,0.0614 -0.570656,-0.003 -0.570656,-0.003 z m 2.780284,0.002 0.249662,-0.0617 0.249662,0.0617 0.249662,0.0617 h -0.499324 -0.499324 z m 4.352916,-0.002 0.322657,-0.0587 0.247999,0.0614 0.247999,0.0614 -0.570656,-0.003 -0.570656,-0.003 z m 2.637621,0.002 0.249662,-0.0617 0.249662,0.0617 0.249662,0.0617 h -0.499324 -0.499324 z m 3.38827,0.0255 v -0.0675 h 0.07133 0.07133 v 0.0675 0.0675 h -0.07133 -0.07133 z m 2.746282,-0.0255 0.249662,-0.0617 0.249662,0.0617 0.249662,0.0617 h -0.499324 -0.499324 z m 5.868348,-0.10152 -0.07892,-0.19456 0.06685,-0.24405 0.06685,-0.24406 0.01655,0.36258 0.01655,0.36258 0.463658,0.0544 0.463658,0.0544 -0.468136,0.0216 -0.468135,0.0216 z m 4.5405,-0.0215 -0.183954,-0.18882 h 0.139869 0.139869 l 0.09404,0.14393 0.09404,0.14394 -0.04995,0.0449 -0.04995,0.0449 z m 2.002921,0.12302 0.249662,-0.0617 0.249662,0.0617 0.249662,0.0617 h -0.499324 -0.499324 z m 10.378806,0.0255 v -0.0675 h 0.0713 0.0713 v 0.0675 0.0675 h -0.0713 -0.0713 z m 1.56931,0 v -0.0675 h 0.0713 0.0713 v 0.0675 0.0675 h -0.0713 -0.0713 z m 6.52854,-0.028 0.32265,-0.0587 0.248,0.0614 0.248,0.0614 -0.57065,-0.003 -0.57066,-0.003 z m 10.05615,0.002 0.24966,-0.0617 0.24966,0.0617 0.24966,0.0617 h -0.49932 -0.49933 z m 14.55173,0 0.24966,-0.0617 0.24966,0.0617 0.24966,0.0617 h -0.49932 -0.49933 z m 4.35291,-0.002 0.32266,-0.0587 0.248,0.0614 0.248,0.0614 -0.57066,-0.003 -0.57066,-0.003 z m 5.79535,-0.0991 -0.0789,-0.19456 0.0668,-0.24405 0.0668,-0.24406 0.0166,0.36258 0.0165,0.36258 0.46366,0.0544 0.46365,0.0544 -0.46813,0.0216 -0.46814,0.0216 z m 2.90716,0.0991 0.32265,-0.0587 0.248,0.0614 0.248,0.0614 -0.57066,-0.003 -0.57065,-0.003 z m 10.76384,-0.1206 -0.18395,-0.18882 h 0.13986 0.13987 l 0.094,0.14393 0.094,0.14394 -0.0499,0.0449 -0.0499,0.0449 z m 2.00292,0.12302 0.24966,-0.0617 0.24967,0.0617 0.24966,0.0617 h -0.49933 -0.49932 z m 6.09889,0.0255 v -0.0675 h 0.0713 0.0713 v 0.0675 0.0675 h -0.0713 -0.0713 z M 45.217918,164.04418 v -0.0675 h 0.07133 0.07133 v 0.0675 0.0675 h -0.07133 -0.07133 z m 64.484132,0 v -0.0675 h 0.0713 0.0713 v 0.0675 0.0675 h -0.0713 -0.0713 z m 62.91483,0 v -0.0675 h 0.0713 0.0713 v 0.0675 0.0675 h -0.0713 -0.0713 z M 60.625632,163.90923 v -0.0675 h 0.07133 0.07133 v 0.0675 0.0675 h -0.07133 -0.07133 z m 0.71332,0 v -0.0675 h 0.07133 0.07133 v 0.0675 0.0675 h -0.07133 -0.07133 z m 21.372852,-0.0247 0.187246,-0.0709 0.08619,0.0815 0.08619,0.0815 -0.273439,-0.0106 -0.27344,-0.0107 z m 25.536856,0 0.18725,-0.0709 0.0862,0.0815 0.0862,0.0815 -0.27344,-0.0106 -0.27343,-0.0107 z m 13.05673,0.002 0.0951,-0.09 0.0951,0.09 0.0951,0.09 h -0.19022 -0.19022 z m 48.17288,0.0225 v -0.0675 h 0.0713 0.0713 v 0.0675 0.0675 h -0.0713 -0.0713 z m 3.42394,0 v -0.0675 h 0.0713 0.0713 v 0.0675 0.0675 h -0.0713 -0.0713 z m 2.6155,-0.0225 0.0951,-0.09 0.0951,0.09 0.0951,0.09 h -0.19022 -0.19021 z m 0.9511,0.0225 v -0.0675 h 0.0713 0.0713 v 0.0675 0.0675 h -0.0713 -0.0713 z m -133.640514,-0.1658 0.53499,-0.0529 0.53499,0.0529 0.53499,0.0529 h -1.06998 -1.06998 z m 7.810855,0.0308 v -0.0675 h 0.07133 0.07133 v 0.0675 0.0675 h -0.07133 -0.07133 z m 37.663299,0 v -0.0675 h 0.07133 0.07133 v 0.0675 0.0675 h -0.07133 -0.07133 z m 31.24342,0 v -0.0675 h 0.0713 0.0713 v 0.0675 0.0675 h -0.0713 -0.0713 z m 3.5666,0 v -0.0675 h 0.0713 0.0713 v 0.0675 0.0675 h -0.0713 -0.0713 z m 24.9662,0 v -0.0675 h 0.0713 0.0713 v 0.0675 0.0675 h -0.0713 -0.0713 z m 28.81813,0 v -0.0675 h 0.0713 0.0713 v 0.0675 0.0675 h -0.0713 -0.0713 z M 49.355175,163.63931 v -0.0675 h 0.07133 0.07133 v 0.0675 0.0675 h -0.07133 -0.07133 z m 37.663299,0 v -0.0675 h 0.07133 0.07133 v 0.0675 0.0675 h -0.07133 -0.07133 z m 22.540916,0 v -0.0675 h 0.0713 0.0713 v 0.0675 0.0675 h -0.0713 -0.0713 z m 1.02117,-0.20243 v -0.3374 l 0.072,0.1687 0.072,0.1687 -0.072,0.16869 -0.072,0.1687 z m 36.21413,0.20243 v -0.0675 h 0.0713 0.0713 v 0.0675 0.0675 h -0.0713 -0.0713 z m 25.53686,0 v -0.0675 h 0.0713 0.0713 v 0.0675 0.0675 h -0.0713 -0.0713 z m -115.50079,-2.02436 3.64e-4,-2.02435 0.04874,1.05208 0.04874,1.05209 -0.0491,0.97227 -0.0491,0.97227 z m 37.663299,0 3.64e-4,-2.02435 0.04874,1.05208 0.04874,1.05209 -0.0491,0.97227 -0.0491,0.97227 z m 68.906721,0 3.6e-4,-2.02435 0.0487,1.05208 0.0487,1.05209 -0.0491,0.97227 -0.0491,0.97227 z m -53.27074,1.75445 v -0.0675 h 0.0713 0.0713 v 0.0675 0.0675 h -0.0713 -0.0713 z m -8.98783,-0.13496 v -0.0675 h 0.0713 0.0713 v 0.0675 0.0675 h -0.0713 -0.0713 z m 1.28398,0 v -0.0675 h 0.0713 0.0713 v 0.0675 0.0675 h -0.0713 -0.0713 z m 67.05208,0 v -0.0675 h 0.0713 0.0713 v 0.0675 0.0675 h -0.0713 -0.0713 z M 55.83094,161.41252 v -1.82192 l 0.04991,0.91096 0.04991,0.91096 -0.04991,0.91096 -0.04991,0.91096 z m 37.663298,0 v -1.82192 l 0.04991,0.91096 0.04991,0.91096 -0.04991,0.91096 -0.04991,0.91096 z m 29.332902,1.68696 v -0.0675 h 0.0713 0.0713 v 0.0675 0.0675 h -0.0713 -0.0713 z m 39.57382,-1.68696 v -1.82192 l 0.0499,0.91096 0.0499,0.91096 -0.0499,0.91096 -0.0499,0.91096 z m 15.93374,1.54076 0.0113,-0.25867 0.0749,0.17713 0.0749,0.17713 -0.0862,0.0815 -0.0862,0.0815 z m -128.112278,-0.13496 0.01126,-0.25867 0.07493,0.17714 0.07493,0.17713 -0.08619,0.0815 -0.08619,0.0815 z m 37.663299,0 0.01126,-0.25867 0.07493,0.17714 0.07493,0.17713 -0.08619,0.0815 -0.08619,0.0815 z m 45.070559,0.14621 v -0.0675 h 0.0713 0.0713 v 0.0675 0.0675 h -0.0713 -0.0713 z m 14.70566,-0.14621 0.0113,-0.25867 0.0749,0.17714 0.0749,0.17713 -0.0862,0.0815 -0.0862,0.0815 z m 11.40186,0.14621 v -0.0675 h 0.0713 0.0713 v 0.0675 0.0675 h -0.0713 -0.0713 z m -40.37392,-0.13496 v -0.0675 h 0.0713 0.0713 v 0.0675 0.0675 h -0.0713 -0.0713 z m 0.99865,0 v -0.0675 h 0.0713 0.0713 v 0.0675 0.0675 h -0.0713 -0.0713 z m 4.27992,0 v -0.0675 h 0.0713 0.0713 v 0.0675 0.0675 h -0.0713 -0.0713 z m 14.2664,0 v -0.0675 h 0.0713 0.0713 v 0.0675 0.0675 h -0.0713 -0.0713 z m 39.08994,0 v -0.0675 h 0.0713 0.0713 v 0.0675 0.0675 h -0.0713 -0.0713 z m -44.22584,-0.13496 v -0.0675 h 0.0713 0.0713 v 0.0675 0.0675 h -0.0713 -0.0713 z m 26.10751,0 v -0.0675 h 0.0713 0.0713 v 0.0675 0.0675 h -0.0713 -0.0713 z m -21.11427,-0.13496 v -0.0675 h 0.0713 0.0713 v 0.0675 0.0675 h -0.0713 -0.0713 z m 19.54497,0 v -0.0675 h 0.0713 0.0713 v 0.0675 0.0675 h -0.0713 -0.0713 z M 46.787223,162.4247 v -0.0675 h 0.07133 0.07133 v 0.0675 0.0675 h -0.07133 -0.07133 z m 55.638967,0 v -0.0675 h 0.0713 0.0713 v 0.0675 0.0675 h -0.0713 -0.0713 z m 75.75459,0 v -0.0675 h 0.0713 0.0713 v 0.0675 0.0675 h -0.0713 -0.0713 z M 62.622928,162.22226 v -0.17994 l 0.09511,0.09 0.09511,0.09 -0.09511,0.09 -0.09511,0.09 z m 42.656542,0.0675 v -0.0675 h 0.0713 0.0713 v 0.0675 0.0675 h -0.0713 -0.0713 z m 32.67006,0 v -0.0675 h 0.0713 0.0713 v 0.0675 0.0675 h -0.0713 -0.0713 z M 60.054976,162.1548 v -0.0675 h 0.07133 0.07133 v 0.0675 0.0675 h -0.07133 -0.07133 z m 99.008824,0 v -0.0675 h 0.0713 0.0713 v 0.0675 0.0675 h -0.0713 -0.0713 z m 9.98648,0 v -0.0675 h 0.0713 0.0713 v 0.0675 0.0675 h -0.0713 -0.0713 z m -68.62139,-0.13495 v -0.0675 h 0.0713 0.0713 v 0.0675 0.0675 h -0.0713 -0.0713 z m 0.99865,0 v -0.0675 h 0.0713 0.0713 v 0.0675 0.0675 h -0.0713 -0.0713 z m 1.71197,0 v -0.0675 h 0.0713 0.0713 v 0.0675 0.0675 h -0.0713 -0.0713 z m 34.66735,0 v -0.0675 h 0.0713 0.0713 v 0.0675 0.0675 h -0.0713 -0.0713 z m -90.734309,-0.13496 v -0.0675 h 0.07133 0.07133 v 0.0675 0.0675 h -0.07133 -0.07133 z m 71.343269,-0.1462 0.0113,-0.25867 0.0749,0.17713 0.0749,0.17713 -0.0862,0.0815 -0.0862,0.0815 z m 5.84922,0 0.0113,-0.25867 0.0749,0.17713 0.0749,0.17713 -0.0862,0.0815 -0.0862,0.0815 z m 9.2619,0.1462 v -0.0675 h 0.0713 0.0713 v 0.0675 0.0675 h -0.0713 -0.0713 z m 4.13726,-0.13496 v -0.0675 h 0.0713 0.0713 v 0.0675 0.0675 h -0.0713 -0.0713 z m 39.66059,0 v -0.0675 h 0.0713 0.0713 v 0.0675 0.0675 h -0.0713 -0.0713 z M 49.925831,161.61495 v -0.0675 h 0.07133 0.07133 v 0.0675 0.0675 h -0.07133 -0.07133 z m 12.697097,0 v -0.0675 h 0.07133 0.07133 v 0.0675 0.0675 h -0.07133 -0.07133 z m 24.966202,0 v -0.0675 h 0.07133 0.07133 v 0.0675 0.0675 h -0.07133 -0.07133 z m 46.08048,0 v -0.0675 h 0.0713 0.0713 v 0.0675 0.0675 h -0.0713 -0.0713 z m 13.69574,0 v -0.0675 h 0.0713 0.0713 v 0.0675 0.0675 h -0.0713 -0.0713 z m -95.403842,-0.161 0.252377,-0.0622 0.175615,0.0672 0.175615,0.0672 -0.427992,-0.005 -0.427992,-0.005 z m 9.627106,0.004 0.17833,-0.0681 0.17833,0.0681 0.17833,0.0681 h -0.35666 -0.35666 z m 28.036193,-0.004 0.252377,-0.0622 0.175615,0.0672 0.175615,0.0672 -0.427992,-0.005 -0.427992,-0.005 z m 43.616803,0.026 v -0.0675 h 0.0713 0.0713 v 0.0675 0.0675 h -0.0713 -0.0713 z m 16.15942,-0.026 0.25237,-0.0622 0.17562,0.0672 0.17561,0.0672 -0.42799,-0.005 -0.42799,-0.005 z M 47.215215,161.34504 v -0.0675 h 0.07133 0.07133 v 0.0675 0.0675 h -0.07133 -0.07133 z m 86.597055,0 v -0.0675 h 0.0713 0.0713 v 0.0675 0.0675 h -0.0713 -0.0713 z m -71.150486,-0.60731 v -0.6073 l 0.06183,0.30365 0.06183,0.30365 -0.06183,0.30366 -0.06183,0.30365 z m 40.477726,0.47235 v -0.0675 h 0.0713 0.0713 v 0.0675 0.0675 h -0.0713 -0.0713 z m 3.1386,0 v -0.0675 h 0.0713 0.0713 v 0.0675 0.0675 h -0.0713 -0.0713 z m 27.10617,0 v -0.0675 h 0.0713 0.0713 v 0.0675 0.0675 h -0.0713 -0.0713 z m 0.57065,-0.13495 v -0.0675 h 0.0713 0.0713 v 0.0675 0.0675 h -0.0713 -0.0713 z m 41.37257,0 v -0.0675 h 0.0713 0.0713 v 0.0675 0.0675 h -0.0713 -0.0713 z m -64.6268,-0.13496 v -0.0675 h 0.0713 0.0713 v 0.0675 0.0675 h -0.0713 -0.0713 z m 22.82624,0 v -0.0675 h 0.0713 0.0713 v 0.0675 0.0675 h -0.0713 -0.0713 z m -33.81137,-0.13496 v -0.0675 h 0.07133 0.07133 v 0.0675 0.0675 H 99.7869 99.71557 Z m 56.06696,0 v -0.0675 h 0.0713 0.0713 v 0.0675 0.0675 h -0.0713 -0.0713 z m -79.178529,-0.13495 v -0.0675 h 0.07133 0.07133 v 0.0675 0.0675 h -0.07133 -0.07133 z m 57.065609,0 v -0.0675 h 0.0713 0.0713 v 0.0675 0.0675 h -0.0713 -0.0713 z m 11.55578,0 v -0.0675 h 0.0713 0.0713 v 0.0675 0.0675 h -0.0713 -0.0713 z m 28.68673,-0.14621 0.0113,-0.25867 0.0749,0.17714 0.0749,0.17713 -0.0862,0.0815 -0.0862,0.0815 z m -98.306767,0.0113 v -0.0675 h 0.07133 0.07133 v 0.0675 0.0675 h -0.07133 -0.07133 z m 23.967553,0 v -0.0675 h 0.07133 0.07133 v 0.0675 0.0675 h -0.07133 -0.07133 z m 0.998644,0 v -0.0675 h 0.0713 0.0713 v 0.0675 0.0675 h -0.0713 -0.0713 z m 3.42394,0 v -0.0675 h 0.0713 0.0713 v 0.0675 0.0675 h -0.0713 -0.0713 z m 14.69439,0 v -0.0675 h 0.0713 0.0713 v 0.0675 0.0675 h -0.0713 -0.0713 z m 0.99865,0 v -0.0675 h 0.0713 0.0713 v 0.0675 0.0675 h -0.0713 -0.0713 z m 3.28127,0 v -0.0675 h 0.0713 0.0713 v 0.0675 0.0675 h -0.0713 -0.0713 z m 0.99865,0 v -0.0675 h 0.0713 0.0713 v 0.0675 0.0675 h -0.0713 -0.0713 z m 20.25829,0 v -0.0675 h 0.0713 0.0713 v 0.0675 0.0675 h -0.0713 -0.0713 z m 11.41312,0 v -0.0675 h 0.0713 0.0713 v 0.0675 0.0675 h -0.0713 -0.0713 z M 47.215215,160.40034 v -0.0675 h 0.07133 0.07133 v 0.0675 0.0675 h -0.07133 -0.07133 z m 79.321185,0 v -0.0675 h 0.0713 0.0713 v 0.0675 0.0675 h -0.0713 -0.0713 z m 33.81137,0 v -0.0675 h 0.0713 0.0713 v 0.0675 0.0675 h -0.0713 -0.0713 z m 14.40907,-0.0675 v -0.17994 l 0.0951,0.09 0.0951,0.09 -0.0951,0.09 -0.0951,0.09 z m -102.147432,-0.0675 v -0.0675 h 0.07133 0.07133 v 0.0675 0.0675 h -0.07133 -0.07133 z m 3.851929,0 v -0.0675 h 0.07133 0.07133 v 0.0675 0.0675 h -0.07133 -0.07133 z m 27.248823,0 v -0.0675 h 0.0713 0.0713 v 0.0675 0.0675 h -0.0713 -0.0713 z m 37.52064,0 v -0.0675 h 0.0713 0.0713 v 0.0675 0.0675 h -0.0713 -0.0713 z m 3.85193,0 v -0.0675 h 0.0713 0.0713 v 0.0675 0.0675 h -0.0713 -0.0713 z m 10.41447,0 v -0.0675 h 0.0713 0.0713 v 0.0675 0.0675 h -0.0713 -0.0713 z m 0.99865,0 v -0.0675 h 0.0713 0.0713 v 0.0675 0.0675 h -0.0713 -0.0713 z M 48.213863,160.13043 v -0.0675 h 0.07133 0.07133 v 0.0675 0.0675 h -0.07133 -0.07133 z m 61.202857,0 v -0.0675 h 0.0713 0.0713 v 0.0675 0.0675 h -0.0713 -0.0713 z m 17.013,-0.40487 0.003,-0.53983 0.062,0.30522 0.062,0.30523 -0.0649,0.2346 -0.0649,0.2346 z m 34.06072,0.40487 v -0.0675 h 0.0713 0.0713 v 0.0675 0.0675 h -0.0713 -0.0713 z M 49.640503,159.99547 v -0.0675 h 0.07133 0.07133 v 0.0675 0.0675 h -0.07133 -0.07133 z m 9.843816,0 v -0.0675 h 0.07133 0.07133 v 0.0675 0.0675 h -0.07133 -0.07133 z m 27.819483,0 v -0.0675 h 0.07133 0.07133 v 0.0675 0.0675 h -0.07133 -0.07133 z m 48.363098,0 v -0.0675 h 0.0713 0.0713 v 0.0675 0.0675 h -0.0713 -0.0713 z m 11.41312,0 v -0.0675 h 0.0713 0.0713 v 0.0675 0.0675 h -0.0713 -0.0713 z m 8.27451,0 v -0.0675 h 0.0713 0.0713 v 0.0675 0.0675 h -0.0713 -0.0713 z m 0.99865,0 v -0.0675 h 0.0713 0.0713 v 0.0675 0.0675 h -0.0713 -0.0713 z m -93.872916,-0.13496 v -0.0675 h 0.07133 0.07133 v 0.0675 0.0675 h -0.07133 -0.07133 z m 0.998648,0 v -0.0675 h 0.07133 0.07133 v 0.0675 0.0675 h -0.07133 -0.07133 z m 96.726198,0 v -0.0675 h 0.0713 0.0713 v 0.0675 0.0675 h -0.0713 -0.0713 z m -24.68087,-0.13495 v -0.0675 h 0.0713 0.0713 v 0.0675 0.0675 h -0.0713 -0.0713 z m 42.08588,0 v -0.0675 h 0.0713 0.0713 v 0.0675 0.0675 h -0.0713 -0.0713 z M 46.929887,159.5906 v -0.0675 h 0.07133 0.07133 v 0.0675 0.0675 h -0.07133 -0.07133 z m 15.265049,0 v -0.0675 h 0.07133 0.07133 v 0.0675 0.0675 h -0.07133 -0.07133 z m 46.508464,0 v -0.0675 h 0.0713 0.0713 v 0.0675 0.0675 h -0.0713 -0.0713 z m 0.99865,0 v -0.0675 h 0.0713 0.0713 v 0.0675 0.0675 h -0.0713 -0.0713 z m 50.64572,0 v -0.0675 h 0.0713 0.0713 v 0.0675 0.0675 h -0.0713 -0.0713 z m 8.98784,0 v -0.0675 h 0.0713 0.0713 v 0.0675 0.0675 h -0.0713 -0.0713 z M 51.067143,159.45564 v -0.0675 h 0.07133 0.07133 v 0.0675 0.0675 h -0.07133 -0.07133 z m 24.680874,0 v -0.0675 h 0.07133 0.07133 v 0.0675 0.0675 h -0.07133 -0.07133 z m 12.982425,0 v -0.0675 h 0.07133 0.07133 v 0.0675 0.0675 h -0.07133 -0.07133 z m 19.232888,-0.0247 0.18725,-0.0709 0.0862,0.0815 0.0862,0.0815 -0.27344,-0.0106 -0.27344,-0.0107 z m 6.44663,-0.0428 v -0.17994 l 0.0951,0.09 0.0951,0.09 -0.0951,0.09 -0.0951,0.09 z m 5.42124,0.0675 v -0.0675 h 0.0713 0.0713 v 0.0675 0.0675 h -0.0713 -0.0713 z m 2.99594,0 v -0.0675 h 0.0713 0.0713 v 0.0675 0.0675 h -0.0713 -0.0713 z m 21.54227,0 v -0.0675 h 0.0713 0.0713 v 0.0675 0.0675 h -0.0713 -0.0713 z m 4.13725,0 v -0.0675 h 0.0713 0.0713 v 0.0675 0.0675 h -0.0713 -0.0713 z m 27.64115,-0.0219 0.17833,-0.0681 0.17833,0.0681 0.17833,0.0681 h -0.35666 -0.35666 z M 75.462689,159.32068 v -0.0675 h 0.07133 0.07133 v 0.0675 0.0675 h -0.07133 -0.07133 z m 23.396897,0 v -0.0675 h 0.07133 0.07133 v 0.0675 0.0675 h -0.07133 -0.07133 z m 0.998648,0 v -0.0675 h 0.07133 0.07133 v 0.0675 0.0675 h -0.07133 -0.07133 z m 4.850576,0 v -0.0675 h 0.0713 0.0713 v 0.0675 0.0675 h -0.0713 -0.0713 z m 22.82624,0 v -0.0675 h 0.0713 0.0713 v 0.0675 0.0675 h -0.0713 -0.0713 z m 16.54903,0 v -0.0675 h 0.0713 0.0713 v 0.0675 0.0675 h -0.0713 -0.0713 z m -93.159601,-0.13495 v -0.0675 h 0.07133 0.07133 v 0.0675 0.0675 h -0.07133 -0.07133 z m 11.413121,0 v -0.0675 h 0.07133 0.07133 v 0.0675 0.0675 H 62.40893 62.3376 Z m 12.697097,0 v -0.0675 h 0.07133 0.07133 v 0.0675 0.0675 h -0.07133 -0.07133 z m 13.553081,0 v -0.0675 h 0.07133 0.07133 v 0.0675 0.0675 h -0.07133 -0.07133 z m 18.831652,0 v -0.0675 h 0.0713 0.0713 v 0.0675 0.0675 h -0.0713 -0.0713 z m 1.28397,0 v -0.0675 h 0.0713 0.0713 v 0.0675 0.0675 h -0.0713 -0.0713 z m 11.98378,0 v -0.0675 h 0.0713 0.0713 v 0.0675 0.0675 h -0.0713 -0.0713 z m 1.28398,0 v -0.0675 h 0.0713 0.0713 v 0.0675 0.0675 h -0.0713 -0.0713 z m 5.99188,0 v -0.0675 h 0.0713 0.0713 v 0.0675 0.0675 h -0.0713 -0.0713 z m 15.69305,0 v -0.0675 h 0.0713 0.0713 v 0.0675 0.0675 h -0.0713 -0.0713 z m 4.70791,0 v -0.0675 h 0.0713 0.0713 v 0.0675 0.0675 h -0.0713 -0.0713 z m 23.68222,0 v -0.0675 h 0.0713 0.0713 v 0.0675 0.0675 h -0.0713 -0.0713 z m 3.42394,0 v -0.0675 h 0.0713 0.0713 v 0.0675 0.0675 h -0.0713 -0.0713 z m 1.42664,0 v -0.0675 h 0.0713 0.0713 v 0.0675 0.0675 h -0.0713 -0.0713 z M 56.81256,158.57842 v -0.60731 l 0.06183,0.30366 0.06183,0.30365 -0.06183,0.30365 -0.06183,0.30366 z m 37.663299,0 v -0.60731 l 0.06183,0.30366 0.06183,0.30365 -0.06183,0.30365 -0.06183,0.30366 z m 68.906721,0 v -0.60731 l 0.0618,0.30366 0.0618,0.30365 -0.0618,0.30365 -0.0618,0.30366 z m -81.905477,-0.26991 v -0.3374 l 0.07196,0.1687 0.07196,0.1687 -0.07196,0.16869 -0.07196,0.1687 z M 46.35923,158.10607 v -0.0675 h 0.07133 0.07133 v 0.0675 0.0675 h -0.07133 -0.07133 z m 32.277733,-0.29546 0.249662,-0.0617 0.249662,0.0617 0.249662,0.0617 h -0.499324 -0.499324 z m 6.134552,0 0.249662,-0.0617 0.249662,0.0617 0.249662,0.0617 h -0.499324 -0.499324 z m 12.411769,0 0.249662,-0.0617 0.249662,0.0617 0.249662,0.0617 h -0.499324 -0.499324 z m 68.906716,0 0.24966,-0.0617 0.24967,0.0617 0.24966,0.0617 h -0.49933 -0.49932 z M 45.075254,157.7012 v -0.0675 h 0.07133 0.07133 v 0.0675 0.0675 h -0.07133 -0.07133 z m 70.476026,-0.26991 v -0.0675 h 0.0713 0.0713 v 0.0675 0.0675 h -0.0713 -0.0713 z m 1.28397,0 v -0.0675 h 0.0713 0.0713 v 0.0675 0.0675 h -0.0713 -0.0713 z m 0.57066,0 v -0.0675 h 0.0713 0.0713 v 0.0675 0.0675 h -0.0713 -0.0713 z m -1.42664,-0.26992 v -0.0675 h 0.0713 0.0713 v 0.0675 0.0675 h -0.0713 -0.0713 z m 0.82923,-0.15967 0.18725,-0.0709 0.0862,0.0815 0.0862,0.0815 -0.27343,-0.0106 -0.27344,-0.0107 z m 39.54468,-6.19862 -0.49932,-0.0555 -0.91979,-0.14188 -0.91978,-0.14189 -1.08973,-0.39754 -1.08973,-0.39754 -0.9151,-0.60311 -0.9151,-0.60311 -0.0422,0.87428 -0.0422,0.87428 h -5.41472 -5.41471 v -8.40646 -8.40647 l -0.21917,-0.80435 -0.21917,-0.80436 -0.45849,-0.64732 -0.45848,-0.64731 -0.61971,-0.39166 -0.6197,-0.39167 -0.79336,-0.1558 -0.79336,-0.1558 -0.58423,0.0852 -0.58423,0.0852 -0.68109,0.21055 -0.68109,0.21056 -0.6883,0.63421 -0.68831,0.63422 -0.34257,0.80465 -0.34258,0.80465 -0.0397,8.67203 -0.0397,8.67204 -8.66281,-0.0348 -8.66281,-0.0348 -1.42664,-3.33767 -1.42664,-3.33767 -7.71393,-0.003 -7.713929,-0.003 -1.416567,3.37273 -1.416566,3.37273 -8.096183,0.001 -8.096182,0.001 v -4.32693 -4.32693 l -0.847737,1.06425 -0.847737,1.06426 -1.001947,0.89412 -1.001946,0.89413 -1.039263,0.69175 -1.039263,0.69175 -1.141312,0.5829 -1.141312,0.58291 -1.283976,0.4777 -1.283976,0.4777 -1.436733,0.3425 -1.436733,0.3425 -1.416547,0.22673 -1.416548,0.22673 -9.308826,0.0572 -9.308827,0.0572 V 131.32734 112.4231 l 8.880835,0.004 8.880834,0.004 1.640637,0.1875 1.640636,0.18751 1.418555,0.29364 1.418556,0.29364 1.220729,0.40485 1.220728,0.40485 1.401844,0.66083 1.401843,0.66083 1.076924,0.70426 1.076924,0.70426 1.040581,0.91929 1.040582,0.91929 0.760571,0.94354 0.760572,0.94354 0.03773,-4.11812 0.03773,-4.11813 h 5.561835 5.561835 v 11.35889 11.35888 l 0.09869,-0.0934 0.0987,-0.0934 5.079241,-11.36675 5.079241,-11.36674 h 5.397757 5.39775 l 5.72367,12.8145 5.72367,12.81451 0.0367,-8.46214 0.0367,-8.46214 h 5.42016 5.42016 v 2.03221 2.03221 l 0.67765,-0.7235 0.67766,-0.7235 0.64198,-0.54375 0.64199,-0.54374 0.67396,-0.43165 0.67395,-0.43164 0.88918,-0.3978 0.88918,-0.3978 1.05608,-0.22226 1.05608,-0.22226 1.94603,0.0669 1.94604,0.0669 1.14131,0.35001 1.14131,0.35002 0.83617,0.47631 0.83616,0.47632 0.51713,0.42951 0.51712,0.42952 0.54609,0.61722 0.5461,0.61722 0.62603,1.21462 0.62603,1.21461 0.2922,1.37077 0.2922,1.37077 v 2.90079 2.90079 l 1.03432,-0.64078 1.03431,-0.64079 0.92732,-0.35434 0.92731,-0.35433 0.85599,-0.20019 0.85598,-0.20019 1.35531,-0.15763 1.35531,-0.15763 1.92596,0.0799 1.92597,0.0799 1.14383,0.19492 1.14384,0.19492 0.88454,0.21683 0.88453,0.21682 0.21859,0.0794 0.21858,0.0794 v -0.74121 -0.7412 l -0.24401,-0.72402 -0.244,-0.72403 -0.79144,-0.75412 -0.79143,-0.75413 -0.99752,-0.32553 -0.99752,-0.32553 -2.49662,0.003 -2.49662,0.003 -1.14132,0.23158 -1.14131,0.23159 -1.60655,0.49444 -1.60656,0.49445 -0.0579,-0.0547 -0.0579,-0.0547 -1.07989,-3.50401 -1.07989,-3.50401 0.12506,-0.11831 0.12506,-0.1183 1.83459,-0.58315 1.83459,-0.58315 1.42664,-0.27493 1.42664,-0.27493 1.20224,-0.1411 1.20224,-0.14109 1.93637,-0.0842 1.93637,-0.0842 1.82322,0.15063 1.82323,0.15063 1.2863,0.26557 1.2863,0.26558 1.20002,0.46281 1.20002,0.46281 0.98853,0.62167 0.98853,0.62168 0.86204,0.87173 0.86204,0.87174 0.52704,0.89153 0.52704,0.89152 0.34144,0.92877 0.34143,0.92876 0.21077,1.32274 0.21076,1.32275 8.4e-4,9.34577 8.4e-4,9.34578 h -5.3499 -5.3499 v -1.49648 -1.49649 l -0.91242,0.78796 -0.91243,0.78796 -0.79544,0.45273 -0.79543,0.45273 -0.87035,0.33256 -0.87035,0.33256 -0.95272,0.18517 -0.95273,0.18518 -1.35531,0.0618 -1.3553,0.0618 z m -3.56441,-4.69098 0.002,-0.28712 0.1383,-0.20244 0.13829,-0.20244 0.002,0.51033 0.002,0.51032 0.22015,0.0799 0.22015,0.0799 0.0713,-0.0674 0.0713,-0.0674 0.0873,-0.52281 0.0873,-0.52282 0.14557,-0.09 0.14556,-0.09 -0.18294,-0.96838 -0.18295,-0.96838 0.15799,-0.14945 0.15798,-0.14945 v 0.29567 0.29566 l 0.47453,0.29426 0.47453,0.29426 0.15587,0.86082 0.15588,0.86083 0.17041,0.19424 0.17041,0.19424 0.1265,-0.0739 0.1265,-0.074 v -0.86926 -0.86925 h 0.2671 0.26709 l 0.0953,0.57356 0.0953,0.57357 0.14238,0.50609 0.14238,0.50609 h 0.27983 0.27982 v -1.19109 -1.19109 l 0.35666,-0.31696 0.35666,-0.31697 v -0.16238 -0.16239 l -0.20169,-0.15835 -0.2017,-0.15835 -0.30757,-0.61898 -0.30757,-0.61898 -0.0802,-0.90525 -0.0802,-0.90525 0.69649,-0.0788 0.69649,-0.0788 0.2338,-0.0857 0.2338,-0.0857 0.0677,0.58225 0.0677,0.58225 -0.20699,2.35116 -0.20699,2.35117 0.0926,0.58415 0.0926,0.58415 h 0.2733 0.2733 l 0.22053,-0.3184 0.22054,-0.31839 0.20827,-0.92996 0.20827,-0.92996 0.002,-0.76803 0.002,-0.76804 0.13882,-0.0812 0.13881,-0.0812 0.0395,1.99633 0.0395,1.99633 0.32397,0.0435 0.32396,0.0435 0.22585,-0.51134 0.22586,-0.51134 0.0922,-1.99704 0.0922,-1.99704 0.39232,0.34477 0.39233,0.34478 0.006,1.04046 0.006,1.04045 0.12002,0.97969 0.12003,0.97968 0.17796,0.20285 0.17797,0.20286 0.19507,-0.15315 0.19507,-0.15314 0.0142,-1.0294 0.0142,-1.02939 0.11422,0.33739 0.11422,0.3374 0.0164,0.53982 0.0164,0.53983 0.13454,0.20131 0.13454,0.20131 0.16566,-0.15671 0.16567,-0.15672 0.11939,-0.58442 0.11939,-0.58442 0.006,-1.56483 0.006,-1.56483 0.30548,-0.25709 0.30547,-0.25709 0.26205,-0.53983 0.26205,-0.53983 0.003,-0.43861 0.003,-0.43861 h -0.19132 -0.19132 l -0.39435,0.6854 -0.39435,0.68541 -0.44864,0.25879 -0.44865,0.25879 -0.32808,5e-4 -0.32807,5.1e-4 -0.40392,-0.19759 -0.40391,-0.19759 -0.37366,-0.42007 -0.37365,-0.42008 v -0.65539 -0.6554 l 0.6498,-0.50369 0.64979,-0.50369 0.36344,-0.58667 0.36344,-0.58666 -0.0814,-0.20077 -0.0814,-0.20077 h -0.26085 -0.26086 l -0.56394,0.55126 -0.56394,0.55127 -0.53857,0.26294 -0.53857,0.26295 -1.67272,0.32512 -1.67273,0.32512 -0.45078,0.15172 -0.45078,0.15171 -0.54787,-0.26451 -0.54786,-0.2645 -0.24151,-0.25264 -0.24151,-0.25264 -0.44959,-0.90886 -0.4496,-0.90886 h -0.22036 -0.22036 l 0.0798,0.83262 0.0798,0.83262 0.43933,0.80583 0.43932,0.80582 -7.9e-4,1.02696 -8e-4,1.02696 -0.14555,0.49574 -0.14555,0.49573 -0.61202,0.28027 -0.61201,0.28026 h -0.52273 -0.52272 l -0.57947,-0.21932 -0.57946,-0.21933 -0.0688,0.065 -0.0688,0.0651 0.0889,0.21902 0.0888,0.21902 0.48499,0.28355 0.485,0.28355 -0.07,0.29275 -0.07,0.29275 -0.12914,0.57563 -0.12915,0.57564 0.24895,0.16663 0.24895,0.16662 0.10599,0.53881 0.10599,0.5388 0.0711,0.10879 0.0711,0.1088 0.2013,-0.15803 0.20129,-0.15804 z m 0.51408,-3.93649 0.23753,-0.34292 -0.15805,-0.32815 -0.15805,-0.32814 -0.36726,-0.0872 -0.36726,-0.0872 -0.27958,0.23935 -0.27958,0.23934 v 0.30684 0.30684 l 0.22418,0.21207 0.22419,0.21208 h 0.34318 0.34318 z m 10.63596,-1.49992 0.26089,-0.22335 v -0.27211 -0.27211 l -0.2361,-0.2468 -0.23611,-0.24681 h -0.32436 -0.32436 l -0.22418,0.21208 -0.22419,0.21208 v 0.38852 0.38853 l 0.24966,0.13756 0.24966,0.13755 0.2741,0.004 0.27409,0.004 z m -98.254998,-1.21005 0.230941,-0.0838 0.208719,-0.38182 0.20872,-0.38181 v -2.75241 -2.75241 l 0.293489,-0.25125 0.293489,-0.25126 1.240149,-0.0739 1.240149,-0.0739 0.18713,-0.11373 0.18713,-0.11373 0.124512,-0.3098 0.124512,-0.3098 -0.07743,-0.28011 -0.07743,-0.28011 -4.921132,-3.86783 -4.921133,-3.86784 -0.413314,-0.19505 -0.413315,-0.19505 -0.403723,0.19053 -0.403724,0.19052 -4.268523,3.41577 -4.268522,3.41576 -0.606322,0.54789 -0.606322,0.54788 v 0.35325 0.35325 l 0.320994,0.28027 0.320994,0.28027 1.190953,0.0485 1.190953,0.0485 0.271353,0.31701 0.271353,0.317 v 2.60793 2.60792 l 0.149088,0.37992 0.149088,0.37992 0.234839,0.1687 0.23484,0.16869 h 6.238281 6.238281 z m 91.407128,-1.62405 0.26089,-0.22335 v -0.33959 -0.33959 l -0.23611,-0.2468 -0.2361,-0.2468 h -0.35898 -0.35899 l -0.26089,0.22335 -0.2609,0.22335 v 0.33959 0.33959 l 0.23611,0.2468 0.23611,0.2468 h 0.35898 0.35898 z m 3.18122,-0.58192 0.25395,-0.26544 v -0.36806 -0.36806 l -0.38245,-0.3112 -0.38245,-0.31119 h -0.1868 -0.1868 l -0.3759,0.27971 -0.3759,0.2797 v 0.39508 0.39508 l 0.28532,0.26991 0.28533,0.26992 h 0.40588 0.40588 z m -55.52418,-6.9885 -2.06334,-4.95967 -0.14284,-0.33739 -0.14284,-0.3374 -2.19483,5.19585 -2.194823,5.19585 -0.0029,0.10122 -0.0029,0.10121 h 4.403853 4.40386 z"
         id="path394634" /><path
         style="fill:#383838;stroke-width:0.790667"
         d="m 156.92384,166.48586 v -0.0748 l 0.45861,-0.87977 0.45861,-0.87978 -0.47945,-0.91096 -0.47946,-0.91096 -0.90461,-1.79622 -0.90461,-1.79623 0.50905,0.0418 0.50906,0.0418 1.08427,2.18589 1.08427,2.18588 0.084,-0.0491 0.084,-0.0491 1.06711,-2.16623 1.0671,-2.16624 0.17833,-0.004 0.17833,-0.004 v 0.0631 0.0631 l -1.76532,3.54696 -1.76532,3.54696 -0.23198,0.0436 -0.23197,0.0436 z m -106.926677,-2.39588 -0.285328,-0.14844 -0.24649,-0.28607 -0.24649,-0.28607 -0.0032,-0.47606 -0.0032,-0.47606 0.232899,-0.31455 0.232899,-0.31455 0.587419,-0.25234 0.587419,-0.25235 1.105646,-0.003 1.105646,-0.003 v -0.59235 -0.59236 l -0.258731,-0.30226 -0.258731,-0.30226 -0.704251,-0.0603 -0.704251,-0.0603 -0.680375,0.33052 -0.680375,0.33051 -0.07703,-0.1179 -0.07703,-0.11791 0.08588,-0.13145 0.08588,-0.13145 0.733085,-0.20594 0.733085,-0.20594 h 0.692009 0.692008 l 0.476097,0.18818 0.476097,0.18818 0.232641,0.3142 0.232641,0.3142 v 1.99432 1.99433 h -0.499324 -0.499324 v -0.36092 -0.36091 l -0.320994,0.28444 -0.320994,0.28445 -0.401613,0.14395 -0.401614,0.14395 -0.668367,-0.004 -0.668366,-0.004 z m 2.445962,-0.53652 0.33642,-0.29898 0.141651,-0.48237 0.141652,-0.48237 7.95e-4,-0.35611 7.96e-4,-0.35611 -0.490782,-0.0871 -0.490782,-0.0871 -0.400868,0.091 -0.400868,0.091 -0.376859,0.17939 -0.376859,0.1794 -0.160205,0.43474 -0.160206,0.43473 0.159069,0.45595 0.159069,0.45595 0.306664,0.12332 0.306663,0.12332 0.484115,-0.0599 0.484116,-0.0599 z m 4.111629,0.56474 -0.290281,-0.1113 -0.169415,-0.19311 -0.169415,-0.1931 -0.03963,-2.01505 -0.03963,-2.01504 -0.392326,-0.0427 -0.392326,-0.0427 v -0.12599 -0.12599 h 0.253585 0.253584 l 0.317072,-0.21009 0.317071,-0.21009 v -0.39722 -0.39722 h 0.277125 0.277126 l 0.04387,0.57357 0.04387,0.57357 0.53499,0.0419 0.53499,0.0419 v 0.11866 0.11867 l -0.53499,0.0419 -0.53499,0.0419 -0.04109,1.82192 -0.04109,1.82192 0.07551,0.28873 0.07551,0.28873 0.357901,0.085 0.357902,0.085 v 0.13238 0.13239 l -0.392326,-0.009 -0.392326,-0.009 z m 3.04015,-0.082 -0.388739,-0.19957 -0.146251,-0.25851 -0.146251,-0.25851 v -0.47086 -0.47087 l 0.36583,-0.41128 0.36583,-0.41128 0.52582,-0.13815 0.525821,-0.13815 1.052465,-7.6e-4 1.052465,-7.5e-4 -0.06956,-0.68486 -0.06956,-0.68486 -0.219211,-0.20737 -0.219211,-0.20737 -0.642502,-0.0685 -0.642502,-0.0685 -0.798842,0.34596 -0.798842,0.34597 v -0.19151 -0.1915 l 0.435663,-0.21312 0.435662,-0.21312 0.691964,-0.0775 0.691964,-0.0775 0.673586,0.0956 0.673586,0.0956 0.338748,0.32044 0.338748,0.32045 v 2.09797 2.09797 h -0.499324 -0.499324 v -0.33739 -0.33739 l -0.291025,0.2753 -0.291025,0.2753 -0.360251,0.12957 -0.36025,0.12957 -0.668367,-0.005 -0.668366,-0.005 z m 2.176709,-0.26427 0.418493,-0.20472 0.218803,-0.40026 0.218803,-0.40026 0.08547,-0.58988 0.08547,-0.58989 -0.55152,-0.082 -0.55152,-0.082 -0.556527,0.12015 -0.556526,0.12016 -0.299458,0.28328 -0.299457,0.28328 v 0.61548 0.61548 l 0.336798,0.25799 0.336799,0.25799 h 0.34794 0.34794 z m 20.024676,0.28168 -0.44294,-0.1824 -0.0901,-0.31841 -0.0901,-0.31841 -0.0019,-1.85566 -0.0019,-1.85566 h -0.427992 -0.427992 v -0.13496 -0.13495 h 0.294707 0.294707 l 0.26981,-0.1366 0.26981,-0.1366 0.09335,-0.47071 0.09335,-0.47071 h 0.26945 0.269451 v 0.60731 0.60731 h 0.570656 0.570656 v 0.13495 0.13496 H 82.738656 82.168 v 2.10356 2.10356 l 0.427992,0.15282 0.427992,0.15282 v 0.10537 0.10537 l -0.392326,-0.005 -0.392326,-0.005 z m 5.864173,0.0363 -0.285328,-0.14844 -0.24649,-0.28607 -0.24649,-0.28607 -0.0032,-0.47606 -0.0032,-0.47606 0.232899,-0.31455 0.232899,-0.31455 0.587419,-0.25234 0.587419,-0.25235 1.105646,-0.003 1.105646,-0.003 v -0.59235 -0.59236 l -0.258731,-0.30226 -0.258731,-0.30226 -0.704251,-0.0603 -0.704251,-0.0603 -0.680376,0.33052 -0.680375,0.33051 -0.07703,-0.1179 -0.07703,-0.11791 0.08588,-0.13145 0.08588,-0.13145 0.733085,-0.20594 0.733085,-0.20594 h 0.692009 0.692008 l 0.476097,0.18818 0.476097,0.18818 0.232641,0.3142 0.232641,0.3142 v 1.99432 1.99433 h -0.499324 -0.499324 v -0.36092 -0.36091 l -0.320994,0.28444 -0.320994,0.28445 -0.401614,0.14395 -0.401613,0.14395 -0.668367,-0.004 -0.668366,-0.004 z m 2.445962,-0.53652 0.33642,-0.29898 0.141651,-0.48237 0.141652,-0.48237 7.95e-4,-0.35611 7.96e-4,-0.35611 -0.490782,-0.0871 -0.490782,-0.0871 -0.400868,0.091 -0.400868,0.091 -0.376859,0.17939 -0.376859,0.1794 -0.160205,0.43474 -0.160206,0.43473 0.159069,0.45595 0.159069,0.45595 0.306663,0.12332 0.306664,0.12332 0.484115,-0.0599 0.484116,-0.0599 z m 4.111629,0.56474 -0.290281,-0.1113 -0.169415,-0.19311 -0.169416,-0.1931 -0.03963,-2.01505 -0.03963,-2.01504 -0.392326,-0.0427 -0.392326,-0.0427 v -0.12599 -0.12599 h 0.253584 0.253585 l 0.317071,-0.21009 0.317072,-0.21009 v -0.39722 -0.39722 h 0.277125 0.277125 l 0.04387,0.57357 0.04387,0.57357 0.53499,0.0419 0.53499,0.0419 v 0.11866 0.11867 l -0.53499,0.0419 -0.53499,0.0419 -0.04109,1.82192 -0.04109,1.82192 0.07551,0.28873 0.07551,0.28873 0.357902,0.085 0.357902,0.085 v 0.13238 0.13239 l -0.392326,-0.009 -0.392326,-0.009 z m 13.130047,0.003 -0.428,-0.0977 -0.30143,-0.15323 -0.30142,-0.15324 -0.43792,-0.47181 -0.43791,-0.47181 -0.0993,-0.62643 -0.0993,-0.62644 0.17635,-0.5568 0.17635,-0.5568 0.5248,-0.49645 0.52481,-0.49646 0.63534,-0.16184 0.63534,-0.16183 0.63873,0.0828 0.63872,0.0828 0.55093,0.34489 0.55093,0.34489 0.27099,0.56464 0.271,0.56465 0.003,0.43861 0.003,0.43861 h -2.28534 -2.28534 l 0.0941,0.37113 0.0941,0.37113 0.19639,0.36885 0.19639,0.36885 0.46124,0.22806 0.46125,0.22807 0.68117,-0.008 0.68117,-0.008 0.71736,-0.33584 0.71735,-0.33584 -0.0432,0.28655 -0.0432,0.28656 -0.71332,0.23027 -0.71332,0.23026 -0.64198,-0.008 -0.64199,-0.008 z m 2.63928,-2.70603 v -0.26718 l -0.23022,-0.5443 -0.23023,-0.5443 -0.42426,-0.28579 -0.42427,-0.28578 -0.53344,-0.0132 -0.53344,-0.0132 -0.3784,0.23455 -0.37841,0.23454 -0.20474,0.37453 -0.20473,0.37452 -0.0994,0.50143 -0.0994,0.50142 h 1.87051 1.87051 z m 10.29252,2.69403 -0.33595,-0.13435 -0.41627,-0.28039 -0.41626,-0.2804 -0.2821,-0.52308 -0.2821,-0.52309 0.002,-0.7139 0.002,-0.7139 0.32296,-0.53945 0.32296,-0.53944 0.63768,-0.33672 0.63767,-0.33673 h 0.92732 0.92732 l 0.63767,0.33673 0.63768,0.33672 0.32296,0.53944 0.32296,0.53945 0.002,0.7139 0.002,0.7139 -0.28815,0.5343 -0.28814,0.5343 -0.58774,0.36794 -0.58774,0.36793 -0.94308,0.0356 -0.94308,0.0356 z m 2.11925,-0.52656 0.35666,-0.23251 0.24944,-0.46276 0.24944,-0.46275 2.2e-4,-0.72187 2.2e-4,-0.72187 -0.23824,-0.47494 -0.23825,-0.47494 -0.43941,-0.25347 -0.43941,-0.25348 h -0.49932 -0.49932 l -0.43941,0.25348 -0.43941,0.25347 -0.25369,0.50573 -0.25369,0.50573 0.0568,0.84358 0.0568,0.84357 0.39183,0.48596 0.39182,0.48596 0.45849,0.12204 0.45849,0.12203 0.35666,-0.0652 0.35666,-0.0652 z m 25.03753,0.50726 -0.28533,-0.14844 -0.24649,-0.28607 -0.24649,-0.28607 -0.003,-0.47606 -0.003,-0.47606 0.2329,-0.31455 0.2329,-0.31455 0.58742,-0.25234 0.58742,-0.25235 1.10564,-0.003 1.10565,-0.003 v -0.59235 -0.59236 l -0.25873,-0.30226 -0.25873,-0.30226 -0.70425,-0.0603 -0.70426,-0.0603 -0.68037,0.33052 -0.68038,0.33051 -0.077,-0.1179 -0.077,-0.11791 0.0859,-0.13145 0.0859,-0.13145 0.73309,-0.20594 0.73308,-0.20594 h 0.69201 0.69201 l 0.4761,0.18818 0.47609,0.18818 0.23265,0.3142 0.23264,0.3142 v 1.99432 1.99433 h -0.49933 -0.49932 v -0.36092 -0.36091 l -0.321,0.28444 -0.32099,0.28445 -0.40161,0.14395 -0.40162,0.14395 -0.66836,-0.004 -0.66837,-0.004 z m 2.44596,-0.53652 0.33642,-0.29898 0.14166,-0.48237 0.14165,-0.48237 7.9e-4,-0.35611 8e-4,-0.35611 -0.49078,-0.0871 -0.49079,-0.0871 -0.40086,0.091 -0.40087,0.091 -0.37686,0.17939 -0.37686,0.1794 -0.1602,0.43474 -0.16021,0.43473 0.15907,0.45595 0.15907,0.45595 0.30666,0.12332 0.30666,0.12332 0.48412,-0.0599 0.48412,-0.0599 z m 13.24213,0.56474 -0.29028,-0.1113 -0.16942,-0.19311 -0.16941,-0.1931 -0.0396,-2.01505 -0.0396,-2.01504 -0.39232,-0.0427 -0.39233,-0.0427 v -0.12599 -0.12599 h 0.25359 0.25358 l 0.31707,-0.21009 0.31707,-0.21009 v -0.39722 -0.39722 h 0.27713 0.27712 l 0.0439,0.57357 0.0439,0.57357 0.53499,0.0419 0.53499,0.0419 v 0.11866 0.11867 l -0.53499,0.0419 -0.53499,0.0419 -0.0411,1.82192 -0.0411,1.82192 0.0755,0.28873 0.0755,0.28873 0.3579,0.085 0.3579,0.085 v 0.13238 0.13239 l -0.39232,-0.009 -0.39233,-0.009 z m 6.5675,-0.19117 -0.71332,-0.31694 -0.24422,-0.26024 -0.24422,-0.26025 -0.21944,-0.49681 -0.21944,-0.49682 v -0.43407 -0.43408 l 0.29055,-0.56777 0.29055,-0.56777 0.57762,-0.3616 0.57762,-0.3616 0.7368,-0.14597 0.7368,-0.14597 0.85599,0.12177 0.85598,0.12177 0.0456,0.30366 0.0456,0.30365 h -0.0649 -0.065 l -0.40863,-0.2016 -0.40863,-0.20161 -0.69176,-8.3e-4 -0.69176,-8.3e-4 -0.48297,0.2168 -0.48297,0.21681 -0.31878,0.48793 -0.31878,0.48793 -0.004,0.74605 -0.004,0.74606 0.19512,0.43741 0.19511,0.43742 0.46371,0.27111 0.46372,0.27111 0.69648,-0.006 0.69648,-0.006 0.57065,-0.19448 0.57066,-0.19448 0.0357,-0.002 0.0357,-0.002 v 0.20932 0.20932 l -0.49474,0.19555 -0.49474,0.19555 -0.8249,-10e-4 -0.8249,-0.001 z m 4.88624,0.16366 -0.53499,-0.1408 v -0.18903 -0.18903 h 0.085 0.085 l 0.79133,0.21762 0.79133,0.21762 0.56134,-0.0712 0.56135,-0.0712 0.27425,-0.23479 0.27426,-0.23479 v -0.31846 -0.31846 l -0.46366,-0.27077 -0.46366,-0.27077 -0.7383,-0.20623 -0.7383,-0.20624 -0.47434,-0.30149 -0.47435,-0.30149 -0.0423,-0.60995 -0.0423,-0.60994 0.28255,-0.24189 0.28255,-0.24189 0.54443,-0.18368 0.54444,-0.18368 0.45663,-0.006 0.45664,-0.006 0.72034,0.14614 0.72034,0.14614 v 0.20569 0.20569 l -0.23826,-0.0865 -0.23826,-0.0865 -0.62764,-0.13306 -0.62765,-0.13306 -0.56111,0.14293 -0.56112,0.14293 -0.23537,0.33982 -0.23538,0.33982 0.27337,0.34636 0.27336,0.34636 1.08925,0.3637 1.08926,0.3637 0.36884,0.22863 0.36885,0.22862 0.0847,0.31937 0.0847,0.31938 -0.0468,0.3741 -0.0468,0.37409 -0.40268,0.28326 -0.40268,0.28326 -1.16663,0.0262 -1.16662,0.0262 z m -133.355184,-3.218 v -3.23897 h 1.828739 1.828738 l 0.710002,0.19946 0.710002,0.19946 0.662152,0.41489 0.662152,0.4149 0.365708,0.69424 0.365708,0.69423 v 0.69454 0.69454 l -0.331861,0.59479 -0.331861,0.5948 -0.601751,0.43515 -0.601751,0.43515 -0.732918,0.2059 -0.732918,0.20589 h -1.90007 -1.900071 z m 3.552354,2.82438 0.713117,-0.14467 0.582602,-0.39924 0.582601,-0.39923 0.276517,-0.43014 0.276518,-0.43013 0.09375,-0.59139 0.09375,-0.5914 -0.174899,-0.56014 -0.174899,-0.56013 -0.338764,-0.42466 -0.338763,-0.42466 -0.745321,-0.35134 -0.74532,-0.35135 h -1.255965 -1.255965 v 2.90158 2.90158 h 0.848962 0.848962 z m 23.839136,-2.82438 v -3.23897 h 0.499324 0.499324 v 3.23897 3.23897 H 69.11414 68.614816 Z m 2.85328,0.80974 v -2.42922 h 0.499324 0.499324 v 0.43012 0.43012 l 0.392326,-0.35406 0.392327,-0.35406 0.401613,-0.14354 0.401613,-0.14354 0.454371,0.003 0.454371,0.003 0.61114,0.26239 0.61114,0.26239 0.277377,0.57813 0.277376,0.57812 0.0031,1.65323 0.0031,1.65322 H 76.247274 75.74795 v -1.76114 -1.76115 l -0.203297,-0.37189 -0.203297,-0.3719 -0.374072,-0.16123 -0.374072,-0.16123 -0.456945,5e-4 -0.456945,5.1e-4 -0.467214,0.26947 -0.467215,0.26947 -0.139108,0.34612 -0.139108,0.34612 v 1.67817 1.67818 H 71.96742 71.468096 Z m 6.847873,0 v -2.42922 h 0.499324 0.499324 v 2.42922 2.42923 h -0.499324 -0.499324 z m 6.277216,0 v -2.42922 h 0.499324 0.499324 v 2.42922 2.42923 h -0.499324 -0.499324 z m 12.269105,0 v -2.42922 h 0.499324 0.499324 v 2.42922 2.42923 H 97.361614 96.86229 Z m 3.50395,0.0859 -1.36399,-2.34337 v -0.0944 -0.0944 l 0.463658,0.0423 0.463658,0.0423 1.069984,1.85406 1.06998,1.85406 0.18318,-0.2329 0.18317,-0.2329 0.95814,-1.65182 0.95813,-1.65182 0.17833,-0.003 0.17833,-0.003 v 0.0858 0.0859 l -1.36399,2.34337 -1.364,2.34337 h -0.12529 -0.12529 z m 15.04237,0.0491 v -2.29427 h -0.42799 -0.42799 v -0.13496 -0.13495 h 0.42799 0.42799 v -0.79995 -0.79995 l 0.38366,-0.28548 0.38367,-0.28549 0.85332,0.0395 0.85333,0.0395 0.062,0.17747 0.062,0.17747 -0.49928,-0.0886 -0.49928,-0.0886 -0.30035,0.15206 -0.30035,0.15206 v 0.80499 0.805 h 0.78465 0.78465 v 0.13495 0.13496 h -0.78465 -0.78465 v 2.29427 2.29427 h -0.49932 -0.49933 z m 10.12915,-0.13496 v -2.42922 h 0.42799 0.42799 v 0.49759 0.4976 l 0.39233,-0.35548 0.39232,-0.35548 0.53041,-0.2096 0.53041,-0.20959 h 0.14724 0.14725 v 0.33739 0.33739 h -0.62275 -0.62275 l -0.3759,0.27971 -0.3759,0.27971 v 1.87961 1.8796 h -0.49932 -0.49932 z m 7.91114,-0.43861 1.47001,-2.86784 -0.20033,-0.37113 -0.20032,-0.37113 h 0.54589 0.5459 l 0.33438,0.64105 0.33439,0.64104 1.32788,2.59793 1.32788,2.59792 h -0.56519 -0.56519 l -0.45926,-0.88102 -0.45927,-0.88102 -1.78636,0.0375 -1.78637,0.0375 -0.41775,0.84348 -0.41776,0.84348 h -0.24927 -0.24927 z m 3.21665,0.72733 v -0.11616 l -0.71056,-1.43585 -0.71056,-1.43585 h -0.0729 -0.0729 l -0.78585,1.48228 -0.78584,1.48228 v 0.0697 0.0697 h 1.56931 1.5693 z m 3.42394,-0.28872 v -2.42922 h 0.49932 0.49932 v 0.43012 0.43012 l 0.39233,-0.35406 0.39233,-0.35406 0.40161,-0.14354 0.40161,-0.14354 0.45437,0.003 0.45437,0.003 0.61114,0.26239 0.61114,0.26239 0.27738,0.57813 0.27738,0.57812 0.003,1.65323 0.003,1.65322 h -0.49932 -0.49932 v -1.76114 -1.76115 l -0.2033,-0.37189 -0.2033,-0.3719 -0.37407,-0.16123 -0.37407,-0.16123 -0.45695,5e-4 -0.45694,5.1e-4 -0.46722,0.26947 -0.46721,0.26947 -0.13911,0.34612 -0.13911,0.34612 v 1.67817 1.67818 h -0.49932 -0.49932 z m 12.98242,-1.21461 v -3.64384 h 0.49932 0.49933 v 3.64384 3.64384 h -0.49933 -0.49932 z m 12.6971,1.21461 v -2.42922 h 0.49932 0.49933 v 2.42922 2.42923 h -0.49933 -0.49932 z m -87.453041,-3.4414 v -0.3374 h 0.499324 0.499324 v 0.3374 0.33739 h -0.499324 -0.499324 z m 6.277216,0 v -0.3374 h 0.499324 0.499324 v 0.3374 0.33739 h -0.499324 -0.499324 z m 12.269105,0 v -0.3374 h 0.499324 0.499324 v 0.3374 0.33739 H 97.361614 96.86229 Z m 68.90672,0 v -0.3374 h 0.49932 0.49933 v 0.3374 0.33739 h -0.49933 -0.49932 z"
         id="path394633" /></g></g></svg>
