<?xml version="1.0" encoding="UTF-8"?>
<svg version="1.1" xmlns="http://www.w3.org/2000/svg" width="329" height="175" viewBox="0 0 329 175">
<path d="M0 0 C50.82 0 101.64 0 154 0 C154 18.15 154 36.3 154 55 C96.19500552 62.29167206 96.19500552 62.29167206 78.62086487 49.2208271 C72.20918423 44.12652537 66.52571269 38.33308423 61.0625 32.25 C60.33131077 31.43711643 60.33131077 31.43711643 59.58535004 30.60781097 C52.82714162 23.034538 46.11143872 15.24777369 40.52529907 6.7590332 C38.68080011 4.63188649 37.84092805 4.42895141 35.0793457 4.17871094 C33.9084716 4.05903961 33.9084716 4.05903961 32.71394348 3.93695068 C31.87634995 3.87010071 31.03875641 3.80325073 30.17578125 3.734375 C29.31438034 3.65125061 28.45297943 3.56812622 27.56547546 3.48248291 C24.81576969 3.2211182 22.06454841 2.98527937 19.3125 2.75 C17.44710952 2.57719776 15.58187175 2.40273848 13.71679688 2.2265625 C9.14608054 1.79846547 4.5738413 1.39324477 0 1 C0 0.67 0 0.34 0 0 Z " fill="#16549D" transform="translate(170,59)"/>
<path d="M0 0 C9.0959769 0.69969053 18.18375086 1.41944392 27.26806641 2.24731445 C28.68318651 2.37505241 30.09855988 2.50001253 31.51416016 2.62231445 C33.60122555 2.80289368 35.68732746 2.99232856 37.7734375 3.18359375 C38.99466309 3.29243896 40.21588867 3.40128418 41.47412109 3.51342773 C49.51088214 4.62250298 53.49807727 6.76611289 59 12.4765625 C59.9590625 13.4426796 59.9590625 13.4426796 60.9375 14.42831421 C62.97035224 16.48241437 64.98492782 18.55347106 67 20.625 C68.35305967 21.99458411 69.70721685 23.36308486 71.0625 24.73046875 C76.68751213 30.43126954 82.19342644 36.16629983 87.43972778 42.22006226 C89.21229118 44.24217895 91.05510708 46.16966365 92.96484375 48.0625 C93.61904297 48.71347656 94.27324219 49.36445312 94.94726562 50.03515625 C95.60404297 50.68355469 96.26082031 51.33195312 96.9375 52 C97.62134766 52.67933594 98.30519531 53.35867187 99.00976562 54.05859375 C100.67087159 55.70808359 102.33428513 57.3551668 104 59 C100.8768578 60.8197623 98.60250265 61.25634429 95.00390625 61.265625 C93.98997803 61.26973389 92.9760498 61.27384277 91.93139648 61.27807617 C90.81966064 61.26881104 89.7079248 61.2595459 88.5625 61.25 C87.38308838 61.24395752 86.20367676 61.23791504 84.98852539 61.23168945 C62.2240582 60.98993512 39.48505233 59.41349083 16.8125 57.4375 C16.07095673 57.37356049 15.32941345 57.30962097 14.56539917 57.2437439 C12.48708015 57.06241483 10.40948463 56.87455967 8.33203125 56.68359375 C7.15358643 56.57587646 5.9751416 56.46815918 4.76098633 56.35717773 C2 56 2 56 0 55 C0 36.85 0 18.7 0 0 Z " fill="#16549C" transform="translate(156,59)"/>
<path d="M0 0 C18.15 0 36.3 0 55 0 C55 17.82 55 35.64 55 54 C36.85 54 18.7 54 0 54 C0 36.18 0 18.36 0 0 Z " fill="#16549C" transform="translate(213,3)"/>
<path d="M0 0 C18.15 0 36.3 0 55 0 C55.66 5.94 56.32 11.88 57 18 C57.28101563 20.47113281 57.56203125 22.94226563 57.8515625 25.48828125 C58.04492188 27.19467773 58.04492188 27.19467773 58.2421875 28.93554688 C58.5031786 31.23786121 58.76628762 33.5399362 59.03125 35.84179688 C59.15757812 36.96263672 59.28390625 38.08347656 59.4140625 39.23828125 C59.5270166 40.22868408 59.6399707 41.21908691 59.75634766 42.23950195 C59.98389947 44.81758647 60 47.41189266 60 50 C41.85 50 23.7 50 5 50 C0.81699523 33.26798091 0.67327309 17.50510025 0 0 Z " fill="#17559C" transform="translate(208,121)"/>
<path d="M0 0 C5.94 0 11.88 0 18 0 C18.01401855 1.87703613 18.01401855 1.87703613 18.02832031 3.79199219 C18.06820482 8.4365595 18.13395941 13.08046335 18.20751953 17.72460938 C18.23573807 19.73428827 18.25694821 21.74407834 18.27099609 23.75390625 C18.29241335 26.64380849 18.33905703 29.5323729 18.390625 32.421875 C18.39185364 33.31992859 18.39308228 34.21798218 18.39434814 35.14324951 C18.47887481 40.20217803 18.47887481 40.20217803 20.88964844 44.54003906 C23.43542435 46.30123063 24.8913907 46.92598549 28 47 C32.29799298 45.42042918 32.29799298 45.42042918 35 42 C35.11704964 40.64247704 35.17677189 39.27974112 35.20532227 37.91748047 C35.22526749 37.07675995 35.24521271 36.23603943 35.26576233 35.36984253 C35.29083107 34.00727829 35.29083107 34.00727829 35.31640625 32.6171875 C35.33718735 31.68778351 35.35796844 30.75837952 35.37937927 29.80081177 C35.44487646 26.8256179 35.50376052 23.85033423 35.5625 20.875 C35.60568506 18.86066772 35.64929934 16.84634459 35.69335938 14.83203125 C35.80055803 9.88811337 35.90182501 4.94410497 36 0 C38.97 0 41.94 0 45 0 C45.14910307 6.10137409 45.25757224 12.20167163 45.32958984 18.30444336 C45.35963246 20.3772226 45.40047967 22.4498761 45.45263672 24.5222168 C45.52600631 27.51382575 45.55958173 30.50374451 45.5859375 33.49609375 C45.61690521 34.41208847 45.64787292 35.32808319 45.67977905 36.27183533 C45.68339601 43.29712743 43.52251397 47.66122343 39 53 C33.20813129 57.93236711 26.45527524 58.73531166 19.0546875 58.421875 C12.18652327 57.47333058 7.42873889 54.31448667 3 49 C-0.41141076 43.64693096 -0.39740821 39.14314703 -0.29296875 33.0078125 C-0.28872391 32.06187225 -0.28447906 31.11593201 -0.28010559 30.1413269 C-0.26338306 27.13558867 -0.22574263 24.1305338 -0.1875 21.125 C-0.17244486 19.08073889 -0.15875791 17.03646721 -0.14648438 14.9921875 C-0.11350055 9.99453046 -0.06176253 4.99738089 0 0 Z " fill="#16549C" transform="translate(49,61)"/>
<path d="M0 0 C1.11826172 0.00322266 2.23652344 0.00644531 3.38867188 0.00976562 C4.55591797 0.01814453 5.72316406 0.02652344 6.92578125 0.03515625 C8.10462891 0.03966797 9.28347656 0.04417969 10.49804688 0.04882812 C13.41150914 0.06062352 16.32486988 0.07708355 19.23828125 0.09765625 C19.23828125 2.73765625 19.23828125 5.37765625 19.23828125 8.09765625 C18.19027344 8.15824219 17.14226562 8.21882813 16.0625 8.28125 C14.68358077 8.36567363 13.3046752 8.45032072 11.92578125 8.53515625 C10.8903418 8.59413086 10.8903418 8.59413086 9.83398438 8.65429688 C6.7666659 8.8469304 4.16859973 9.12088342 1.23828125 10.09765625 C0.90828125 11.74765625 0.57828125 13.39765625 0.23828125 15.09765625 C0.78355469 15.34 1.32882813 15.58234375 1.890625 15.83203125 C3.48197116 16.53929621 5.07030503 17.25336153 6.65625 17.97265625 C8.30410339 18.69063171 9.97322482 19.36275667 11.6640625 19.97265625 C16.62118323 21.83886641 19.86065557 23.81242409 22.42578125 28.55078125 C24.52584435 35.13367134 24.47637325 42.38337764 21.61328125 48.66015625 C13.51670844 56.96979676 13.51670844 56.96979676 7.32739258 57.21118164 C6.17005615 57.20594482 5.01271973 57.20070801 3.8203125 57.1953125 C2.56669922 57.19208984 1.31308594 57.18886719 0.02148438 57.18554688 C-1.28884766 57.17716797 -2.59917969 57.16878906 -3.94921875 57.16015625 C-5.28450356 57.15513942 -6.61979016 57.15057684 -7.95507812 57.14648438 C-11.22400348 57.1346832 -14.49283866 57.11821922 -17.76171875 57.09765625 C-17.76171875 54.12765625 -17.76171875 51.15765625 -17.76171875 48.09765625 C-16.28058594 48.071875 -14.79945312 48.04609375 -13.2734375 48.01953125 C-11.33200147 47.96325774 -9.39059636 47.90591024 -7.44921875 47.84765625 C-5.98452148 47.82638672 -5.98452148 47.82638672 -4.49023438 47.8046875 C-3.55244141 47.77246094 -2.61464844 47.74023438 -1.6484375 47.70703125 C-0.78436279 47.68608398 0.07971191 47.66513672 0.9699707 47.64355469 C3.39160571 47.27439937 3.39160571 47.27439937 5.06323242 45.21972656 C6.49564175 43.12256744 6.49564175 43.12256744 5.92578125 40.53515625 C3.14159526 36.51355427 -1.35079284 35.79034765 -5.85546875 34.49609375 C-11.44257655 32.71251703 -14.42379299 29.89087144 -17.76171875 25.09765625 C-19.85477451 20.91154473 -19.18536483 15.65632677 -18.76171875 11.09765625 C-16.46542416 6.15179099 -13.4484801 3.79005107 -8.76171875 1.09765625 C-5.58384334 0.03836445 -3.33582932 -0.01693314 0 0 Z " fill="#16549D" transform="translate(116.76171875,59.90234375)"/>
<path d="M0 0 C1.11826172 0.00322266 2.23652344 0.00644531 3.38867188 0.00976562 C4.55591797 0.01814453 5.72316406 0.02652344 6.92578125 0.03515625 C8.10462891 0.03966797 9.28347656 0.04417969 10.49804688 0.04882812 C13.41150914 0.06062352 16.32486988 0.07708355 19.23828125 0.09765625 C19.23828125 2.73765625 19.23828125 5.37765625 19.23828125 8.09765625 C18.19027344 8.14664063 17.14226563 8.195625 16.0625 8.24609375 C14.68356771 8.32113768 13.30466275 8.39668482 11.92578125 8.47265625 C10.8903418 8.5190625 10.8903418 8.5190625 9.83398438 8.56640625 C6.16837336 8.77890544 4.35927333 9.01699486 1.23828125 11.09765625 C0.98806555 14.18131496 0.98806555 14.18131496 1.23828125 17.09765625 C1.79515625 17.195625 2.35203125 17.29359375 2.92578125 17.39453125 C9.67801964 18.71760499 15.54102081 20.54235688 20.61328125 25.34765625 C23.94314247 30.98280601 24.79737947 36.46081291 23.8359375 42.859375 C22.3906189 48.27223486 19.8071236 51.84655412 15.4609375 55.3125 C9.75978811 58.39887591 3.08364663 57.5125775 -3.19921875 57.34765625 C-4.50310547 57.32960937 -5.80699219 57.3115625 -7.15039062 57.29296875 C-10.35492784 57.24601582 -13.55793765 57.18035089 -16.76171875 57.09765625 C-16.76171875 54.12765625 -16.76171875 51.15765625 -16.76171875 48.09765625 C-16.13604004 48.07783691 -15.51036133 48.05801758 -14.86572266 48.03759766 C-12.03895356 47.94251399 -9.2129406 47.83276879 -6.38671875 47.72265625 C-5.401875 47.69171875 -4.41703125 47.66078125 -3.40234375 47.62890625 C-2.46132813 47.59023437 -1.5203125 47.5515625 -0.55078125 47.51171875 C0.31853027 47.48029785 1.1878418 47.44887695 2.08349609 47.41650391 C4.44789919 47.28536192 4.44789919 47.28536192 6.23828125 45.09765625 C5.91501572 41.50086559 5.91501572 41.50086559 5.23828125 38.09765625 C4.06910156 37.73414063 2.89992188 37.370625 1.6953125 36.99609375 C0.14679916 36.48930756 -1.40135972 35.98143739 -2.94921875 35.47265625 C-3.71814453 35.23675781 -4.48707031 35.00085938 -5.27929688 34.7578125 C-11.74335865 32.59387766 -14.74327434 29.75007946 -18.07421875 23.72265625 C-19.7368822 17.3743049 -19.17251258 12.53526856 -16.0390625 6.859375 C-11.98499959 1.2679916 -6.49892136 -0.03298945 0 0 Z " fill="#16549D" transform="translate(20.76171875,59.90234375)"/>
<path d="M0 0 C2.31 0 4.62 0 7 0 C7 14.19 7 28.38 7 43 C6.67 43 6.34 43 6 43 C5.67874599 40.417492 5.36605456 37.8346189 5.0625 35.25 C4.9689624 34.45392334 4.8754248 33.65784668 4.77905273 32.83764648 C3.98919702 25.72341677 3.6408547 18.61991752 3.51782227 11.46386719 C3.49260498 10.66239258 3.4673877 9.86091797 3.44140625 9.03515625 C3.42795166 8.3275415 3.41449707 7.61992676 3.40063477 6.89086914 C2.89034234 4.48245062 1.76830298 3.64867645 0 2 C0 1.34 0 0.68 0 0 Z " fill="#16549C" transform="translate(262,116)"/>
</svg>
